<svg xmlns="http://www.w3.org/2000/svg" width="412" height="412" viewBox="0 0 412 412" version="1.1">
	<path d="M 228.933 22.676 C 250.573 44.166, 252.448 45.775, 257.788 47.452 C 280.668 54.635, 303.355 68.429, 321.858 86.407 C 373.846 136.919, 387.392 212.012, 356.403 277.906 C 353.970 283.080, 352.171 287.504, 352.405 287.738 C 352.639 287.972, 363.397 285.346, 376.312 281.902 L 399.793 275.641 402.933 265.415 C 406.700 253.147, 409.871 237.348, 410.694 226.750 C 411.026 222.487, 411.680 219, 412.148 219 C 412.617 219, 413 212.673, 413 204.941 C 413 197.209, 412.644 191.102, 412.209 191.371 C 411.775 191.639, 410.875 186.736, 410.210 180.475 C 405.694 137.942, 384.079 93.346, 352.532 61.470 C 316.297 24.858, 269.059 3.476, 217.609 0.401 L 205.789 -0.306 228.933 22.676 M 155.500 6.512 C 75.777 27.122, 16.797 91.044, 2.946 171.849 C 0.427 186.544, 0.196 223.439, 2.532 238 C 4.515 250.358, 9.280 268.212, 13.540 279.241 C 16.998 288.195, 25.405 305.793, 26.981 307.377 C 27.480 307.878, 28.292 306.592, 28.874 304.377 C 29.436 302.245, 33.102 288.575, 37.022 274 L 44.150 247.500 42.550 239.500 C 29.221 172.880, 57.222 104.773, 113.331 67.342 C 136.660 51.779, 162.510 42.729, 191.818 39.862 L 204.136 38.657 186.829 21.329 C 173.229 7.712, 168.984 4.020, 167.011 4.093 C 165.630 4.144, 160.450 5.233, 155.500 6.512 M 61.724 291.692 C 61.468 292.136, 58.466 302.978, 55.053 315.785 L 48.849 339.069 54.574 345.285 C 125.921 422.741, 243.780 433.996, 328.589 371.452 C 348.871 356.495, 369.714 333.734, 381.374 313.811 L 384.119 309.122 370.809 312.647 C 363.489 314.585, 349.531 318.328, 339.792 320.964 L 322.084 325.756 315.792 331.471 C 308.075 338.481, 291.321 349.815, 281.102 354.938 C 253.925 368.563, 221.726 374.847, 192.750 372.182 C 176.193 370.659, 167.618 368.903, 152.895 364.017 C 118.712 352.673, 88.900 330.121, 68.527 300.192 C 65.042 295.072, 61.980 291.247, 61.724 291.692" stroke="none" fill="black" fill-rule="evenodd"/>
</svg>